<?xml version="1.0" encoding="utf-8"?>
<!-- Generator: Adobe Illustrator 20.1.0, SVG Export Plug-In . SVG Version: 6.00 Build 0)  -->
<svg version="1.1" id="图层_1" xmlns="http://www.w3.org/2000/svg" xmlns:xlink="http://www.w3.org/1999/xlink" x="0px" y="0px"
	 viewBox="0 0 40 40" style="enable-background:new 0 0 40 40;" xml:space="preserve">
<style type="text/css">
	.st0{fill:#FFC600;}
	.st1{fill:#35C020;}
	.st2{fill:#4B95CE;}
	.st3{fill:#FAAF07;}
	.st4{fill:#FFFFFF;}
	.st5{fill:#E91F1F;}
	.st6{fill:#E42429;}
	.st7{fill:#F39500;}
	.st8{fill:#F85959;}
</style>
<g>
	<g>
		<path class="st8" d="M20,40C9,40,0,31,0,20S9,0,20,0s20,9,20,20S31,40,20,40z M20,1C9.5,1,1,9.5,1,20c0,10.5,8.5,19,19,19
			s19-8.5,19-19C39,9.5,30.5,1,20,1z"/>
	</g>
	<path class="st8" d="M18.9,27.4c0-0.6,0.5-1.1,1.1-1.1c0.6,0,1.1,0.5,1.1,1.1c0,0.6-0.5,1.1-1.1,1.1C19.4,28.5,18.9,28,18.9,27.4
		L18.9,27.4z M15.6,11.5h8.8c0.5,0,0.9,0.4,0.9,1v11c0,0.5-0.4,1-0.9,1l-8.8,0c-0.5,0-0.9-0.4-0.9-1v-11
		C14.7,11.9,15.1,11.5,15.6,11.5L15.6,11.5z M12.5,28.9c0,1,0.8,1.8,1.7,1.8h11.5c0.9,0,1.7-0.8,1.7-1.8l0-17.9c0-1-0.8-1.8-1.7-1.8
		H14.2c-0.9,0-1.7,0.8-1.7,1.8L12.5,28.9L12.5,28.9z"/>
</g>
</svg>
